<svg width="638" height="400" viewBox="0 0 638 400" xmlns="http://www.w3.org/2000/svg"><defs><pattern id="satori_pattern_id_0" x="0" y="0" width="1" height="1" patternUnits="objectBoundingBox"><linearGradient id="satori_biid_0" x1="0" y1="0" x2="0" y2="1" spreadMethod="pad"><stop offset="0%" stop-color="#dbf4ff"/><stop offset="100%" stop-color="#fff1f1"/></linearGradient><rect x="0" y="0" width="638" height="400" fill="url(#satori_biid_0)"/></pattern></defs><mask id="satori_om-id"><rect x="0" y="0" width="638" height="400" fill="#fff"/></mask><rect x="0" y="0" width="638" height="400" fill="url(#satori_pattern_id_0)"/><clipPath id="satori_bct-id-0"><path d="M242.3 153.9L233.5 153.9Q233.2 151.3 231.3 149.9Q229.3 148.5 226.0 148.5L226.0 148.5Q223.7 148.5 222.2 149.1Q220.6 149.7 219.8 150.8Q219.0 152.0 219.0 153.4L219.0 153.4Q219.0 154.5 219.5 155.4Q220.0 156.3 221 156.9Q222.0 157.5 223.2 158.0Q224.5 158.5 225.9 158.8L225.9 158.8L229.8 159.7Q232.7 160.3 235.1 161.4Q237.4 162.5 239.2 164.0Q240.9 165.6 241.9 167.7Q242.9 169.8 242.9 172.5L242.9 172.5Q242.9 176.5 240.9 179.5Q238.9 182.4 235.1 184.0Q231.3 185.6 226.0 185.6L226.0 185.6Q220.7 185.6 216.8 184.0Q212.9 182.4 210.7 179.2Q208.5 176.0 208.4 171.3L208.4 171.3L217.3 171.3Q217.5 173.5 218.6 175.0Q219.7 176.4 221.6 177.1Q223.5 177.9 225.9 177.9L225.9 177.9Q228.2 177.9 229.9 177.2Q231.7 176.5 232.6 175.3Q233.6 174.1 233.6 172.5L233.6 172.5Q233.6 171.0 232.7 170.0Q231.9 169.0 230.2 168.3Q228.6 167.6 226.2 167.1L226.2 167.1L221.4 165.9Q215.9 164.5 212.7 161.7Q209.5 158.8 209.5 154.0L209.5 154.0Q209.5 150.0 211.7 147.1Q213.8 144.1 217.5 142.4Q221.3 140.8 226.1 140.8L226.1 140.8Q230.9 140.8 234.6 142.4Q238.2 144.1 240.2 147.1Q242.2 150.0 242.3 153.9L242.3 153.9ZM256.0 166.1L256.0 166.1L256.0 185L246.9 185L246.9 141.4L255.7 141.4L255.7 158.0L256.1 158.0Q257.2 155.1 259.7 153.5Q262.2 151.8 265.9 151.8L265.9 151.8Q269.3 151.8 271.9 153.3Q274.4 154.8 275.8 157.6Q277.2 160.3 277.2 164.2L277.2 164.2L277.2 185L268.1 185L268.1 165.8Q268.2 162.8 266.6 161.1Q265.1 159.4 262.3 159.4L262.3 159.4Q260.4 159.4 259.0 160.2Q257.6 161.0 256.8 162.5Q256.0 164.0 256.0 166.1ZM291.7 185.6L291.7 185.6Q288.6 185.6 286.1 184.5Q283.7 183.4 282.3 181.3Q280.8 179.1 280.8 175.9L280.8 175.9Q280.8 173.1 281.8 171.3Q282.8 169.4 284.6 168.3Q286.3 167.2 288.5 166.6Q290.7 166.0 293.1 165.8L293.1 165.8Q296.0 165.5 297.7 165.2Q299.5 165.0 300.3 164.4Q301.1 163.9 301.1 162.8L301.1 162.8L301.1 162.7Q301.1 160.7 299.8 159.6Q298.5 158.5 296.2 158.5L296.2 158.5Q293.7 158.5 292.3 159.5Q290.8 160.6 290.4 162.2L290.4 162.2L282.0 161.6Q282.6 158.6 284.5 156.4Q286.4 154.2 289.3 153.0Q292.3 151.8 296.2 151.8L296.2 151.8Q299.0 151.8 301.5 152.5Q304.0 153.1 305.9 154.5Q307.9 155.8 309.0 157.9Q310.1 160.0 310.1 162.9L310.1 162.9L310.1 185L301.5 185L301.5 180.5L301.3 180.5Q300.5 182.0 299.2 183.2Q297.8 184.3 296.0 185.0Q294.1 185.6 291.7 185.6ZM294.3 179.4L294.3 179.4Q296.3 179.4 297.8 178.6Q299.4 177.8 300.2 176.4Q301.1 175.0 301.1 173.3L301.1 173.3L301.1 169.8Q300.7 170.1 300.0 170.3Q299.2 170.6 298.3 170.7Q297.4 170.9 296.5 171.1Q295.6 171.2 294.8 171.3L294.8 171.3Q293.2 171.5 292.0 172.0Q290.8 172.6 290.2 173.4Q289.5 174.3 289.5 175.6L289.5 175.6Q289.5 177.4 290.9 178.4Q292.2 179.4 294.3 179.4ZM327.2 185.5L327.2 185.5Q323.5 185.5 320.5 183.6Q317.5 181.7 315.7 177.9Q314.0 174.2 314.0 168.7L314.0 168.7Q314.0 163.1 315.8 159.3Q317.6 155.6 320.6 153.7Q323.6 151.8 327.2 151.8L327.2 151.8Q330.0 151.8 331.8 152.8Q333.7 153.7 334.8 155.1Q335.9 156.4 336.5 157.8L336.5 157.8L336.8 157.8L336.8 141.4L345.9 141.4L345.9 185L336.9 185L336.9 179.8L336.5 179.8Q335.9 181.1 334.7 182.5Q333.6 183.8 331.7 184.7Q329.9 185.5 327.2 185.5ZM330.1 178.3L330.1 178.3Q332.3 178.3 333.8 177.1Q335.4 175.9 336.2 173.7Q337.0 171.6 337.0 168.6L337.0 168.6Q337.0 165.7 336.2 163.6Q335.4 161.4 333.8 160.2Q332.3 159.1 330.1 159.1L330.1 159.1Q327.9 159.1 326.3 160.3Q324.8 161.5 324.0 163.7Q323.2 165.8 323.2 168.6L323.2 168.6Q323.2 171.5 324.0 173.7Q324.8 175.9 326.4 177.1Q327.9 178.3 330.1 178.3ZM366.1 185.6L366.1 185.6Q361.1 185.6 357.5 183.5Q353.9 181.4 351.9 177.6Q350.0 173.8 350.0 168.8L350.0 168.8Q350.0 163.7 351.9 159.9Q353.9 156.1 357.5 154.0Q361.1 151.8 366.1 151.8L366.1 151.8Q371.1 151.8 374.7 154.0Q378.3 156.1 380.2 159.9Q382.2 163.7 382.2 168.8L382.2 168.8Q382.2 173.8 380.2 177.6Q378.3 181.4 374.7 183.5Q371.1 185.6 366.1 185.6ZM366.1 178.6L366.1 178.6Q368.4 178.6 369.9 177.3Q371.4 176.0 372.2 173.8Q373.0 171.6 373.0 168.7L373.0 168.7Q373.0 165.8 372.2 163.6Q371.4 161.4 369.9 160.1Q368.4 158.8 366.1 158.8L366.1 158.8Q363.9 158.8 362.3 160.1Q360.8 161.4 360.0 163.6Q359.2 165.8 359.2 168.7L359.2 168.7Q359.2 171.6 360.0 173.8Q360.8 176.0 362.3 177.3Q363.9 178.6 366.1 178.6ZM401.4 185L391.8 185L382.9 152.3L392.0 152.3L397.1 174.3L397.4 174.3L402.7 152.3L411.7 152.3L417.1 174.1L417.4 174.1L422.3 152.3L431.5 152.3L422.6 185L413.0 185L407.4 164.4L407.0 164.4L401.4 185Z "/></clipPath><defs><pattern id="satori_pattern_id-0_0" x="0" y="0" width="1" height="1" patternUnits="objectBoundingBox"><linearGradient id="satori_biid-0_0" x1="0" y1="0" x2="1" y2="0" spreadMethod="pad"><stop offset="0%" stop-color="rgb(0, 124, 240)"/><stop offset="100%" stop-color="rgb(0, 223, 216)"/></linearGradient><rect x="0" y="0" width="226" height="73" fill="url(#satori_biid-0_0)"/></pattern></defs><mask id="satori_om-id-0"><rect x="206" y="127" width="226" height="73" fill="#fff"/></mask><rect x="206" y="127" width="226" height="73" fill="url(#satori_pattern_id-0_0)" clip-path="url(#satori_bct-id-0)"/><clipPath id="satori_bct-id-1"><path d="M279.0 258L269.8 258L269.8 214.4L287.0 214.4Q292.0 214.4 295.5 216.2Q299.0 218.1 300.8 221.5Q302.6 224.8 302.6 229.2L302.6 229.2Q302.6 233.5 300.8 236.8Q298.9 240.1 295.4 242.0Q291.8 243.9 286.8 243.9L286.8 243.9L275.8 243.9L275.8 236.5L285.3 236.5Q287.9 236.5 289.7 235.5Q291.4 234.6 292.3 233.0Q293.1 231.3 293.1 229.2L293.1 229.2Q293.1 227.0 292.3 225.3Q291.4 223.7 289.7 222.8Q287.9 221.9 285.2 221.9L285.2 221.9L279.0 221.9L279.0 258ZM306.5 214.4L315.6 214.4L315.6 258L306.5 258L306.5 214.4ZM326.4 270.3L326.4 270.3Q324.7 270.3 323.2 270.0Q321.7 269.7 320.7 269.3L320.7 269.3L322.7 262.6Q324.3 263.0 325.6 263.1Q326.9 263.1 327.9 262.5Q328.8 261.9 329.4 260.3L329.4 260.3L329.9 258.9L318.2 225.3L327.8 225.3L334.5 249.3L334.9 249.3L341.7 225.3L351.3 225.3L338.6 261.5Q337.7 264.2 336.1 266.1Q334.5 268.1 332.2 269.2Q329.8 270.3 326.4 270.3ZM363.0 258L354.0 258L354.0 225.3L362.8 225.3L362.8 231.0L363.1 231.0Q364.0 227.9 366.1 226.4Q368.2 224.8 371.0 224.8L371.0 224.8Q371.6 224.8 372.4 224.9Q373.2 225.0 373.8 225.1L373.8 225.1L373.8 233.2Q373.2 233.0 372.1 232.8Q370.9 232.7 370.0 232.7L370.0 232.7Q368.0 232.7 366.4 233.6Q364.9 234.4 363.9 235.9Q363.0 237.5 363.0 239.5L363.0 239.5L363.0 258Z "/></clipPath><defs><pattern id="satori_pattern_id-1_0" x="0" y="0" width="1" height="1" patternUnits="objectBoundingBox"><linearGradient id="satori_biid-1_0" x1="0" y1="0" x2="1" y2="0" spreadMethod="pad"><stop offset="0%" stop-color="rgb(121, 40, 202)"/><stop offset="100%" stop-color="rgb(255, 0, 128)"/></linearGradient><rect x="0" y="0" width="107" height="73" fill="url(#satori_biid-1_0)"/></pattern></defs><mask id="satori_om-id-1"><rect x="266" y="200" width="107" height="73" fill="#fff"/></mask><rect x="266" y="200" width="107" height="73" fill="url(#satori_pattern_id-1_0)" clip-path="url(#satori_bct-id-1)"/></svg>